:SAMPLES-PER-SECOND 30
:FRAME-RANGE 1-2775
:FULLY-SPECIFIED
:DEGREES
1822
root  -31.498 38.2112 51.5553 14.2208 82.5609 16.547
RightUpLeg  17.5647 -19.1187 -11.6213
RightLeg  20.3834 -3.6032 -1.69258
RightFoot  -15.8738 0.950902 26.339
RightToes  -5.28216e-011 1.2921e-014 -6.02303e-014
Spine  4.4098 2.70649 0.674413
Spine1  -0.668381 3.60996 -5.41147
HEad  1.17239 24.617 -4.12857
LeftShoulder1  0.825801 1.39986 -33.1687
LeftArm  14.6986 24.3216 -25.1102
LeftForeArm  0.0731503 -9.70294 -15.649
LeftHand  0.632751 -3.04669 -8.47962
RightShoulder  6.01449 6.6686 51.7785
RightArm  17.2028 -3.3932 13.9507
RightForeArm  10.8441 1.90611 17.7195
RightHand  0.595066 6.85777 5.26931
LeftUpLeg  -17.4788 5.81542 -8.76882
LeftLeg  11.8679 21.0025 0.87723
LeftFoot  2.88038 -1.36361 10.7558
LeftToes  -2.158e-010 -1.26819e-010 -1.05346e-011
1823
root  -30.4937 38.1134 51.5597 22.6446 82.8577 25.5145
RightUpLeg  13.3595 -15.8318 -12.7143
RightLeg  31.443 -3.1692 -2.32544
RightFoot  -11.3011 -0.0896495 32.4345
RightToes  -5.28216e-011 1.2921e-014 -6.02303e-014
Spine  4.91358 2.8223 -0.143249
Spine1  -0.914363 3.67499 -6.80093
HEad  2.61162 24.433 -3.71045
LeftShoulder1  0.903004 1.22596 -33.5609
LeftArm  11.6911 21.7637 -25.3341
LeftForeArm  2.11138 -7.92905 -16.2945
LeftHand  0.596621 -2.78747 -8.25932
RightShoulder  5.94444 6.68502 51.1083
RightArm  19.3361 -4.47729 15.4006
RightForeArm  9.43908 4.00402 17.2319
RightHand  0.671198 7.09283 5.86206
LeftUpLeg  -16.7552 7.52413 -10.0772
LeftLeg  14.9291 18.8867 1.22608
LeftFoot  0.224484 -1.1237 11.0446
LeftToes  -2.158e-010 -1.26819e-010 -1.05346e-011
1824
root  -29.4775 38.1902 51.5223 26.9395 82.7104 30.0825
RightUpLeg  6.84206 -11.9314 -13.0403
RightLeg  43.7168 -2.65929 -3.01747
RightFoot  -1.54461 -2.27163 25.9604
RightToes  -5.28216e-011 1.2921e-014 -6.02303e-014
Spine  4.97577 2.84605 -0.401752
Spine1  -1.06369 3.75456 -7.68377
HEad  3.2633 24.8856 -4.12525
LeftShoulder1  0.943362 1.13935 -33.8143
LeftArm  11.9126 19.5101 -26.1875
LeftForeArm  1.12465 -8.37446 -16.1267
LeftHand  0.584214 -2.70192 -8.17656
RightShoulder  6.13785 7.18174 50.3275
RightArm  24.9384 -5.071 16.6799
RightForeArm  5.48652 7.70332 16.203
RightHand  0.777229 7.23339 6.75868
LeftUpLeg  -15.0307 6.84849 -10.5217
LeftLeg  15.6122 19.6295 1.33535
LeftFoot  -1.63572 -0.899553 10.6782
LeftToes  -2.158e-010 -1.26819e-010 -1.05346e-011
1825
root  -28.5693 38.1564 51.5159 34.7035 82.6037 38.2055
RightUpLeg  0.0645352 -7.58171 -13.0178
RightLeg  54.0706 -2.38155 -3.92324
RightFoot  9.93511 -2.99045 16.1914
RightToes  -5.28216e-011 1.2921e-014 -6.02303e-014
Spine  5.3005 2.68106 -1.99424
Spine1  -0.949296 3.38883 -7.68976
HEad  3.07863 25.7382 -4.95447
LeftShoulder1  1.00426 1.02233 -34.3809
LeftArm  14.5943 16.942 -26.892
LeftForeArm  -0.457988 -9.81432 -15.5794
LeftHand  0.597158 -3.05497 -7.98312
RightShoulder  6.40419 7.71076 50.0346
RightArm  32.4955 -4.91233 17.3354
RightForeArm  0.653128 12.3022 14.0467
RightHand  0.849226 7.43484 7.28944
LeftUpLeg  -13.7252 5.50377 -11.4241
LeftLeg  16.9682 20.5833 1.92798
LeftFoot  -3.56507 -0.655444 9.93391
LeftToes  -2.158e-010 -1.26819e-010 -1.05346e-011
1826
root  -27.7501 38.077 51.5289 43.6739 83.181 47.8044
RightUpLeg  -4.46214 -4.86097 -13.403
RightLeg  61.0568 -1.35369 -3.16375
RightFoot  7.23918 -2.72319 16.8438
RightToes  -5.28216e-011 1.2921e-014 -6.02303e-014
Spine  6.17987 2.38831 -3.56105
Spine1  -0.905371 2.70984 -7.30238
HEad  2.84426 26.2268 -5.63008
LeftShoulder1  1.10864 0.799802 -34.9051
LeftArm  18.7893 13.8029 -27.7051
LeftForeArm  -2.52681 -11.5503 -14.8263
LeftHand  0.585633 -3.20574 -7.67587
RightShoulder  6.41234 7.7678 49.846
RightArm  37.6047 -4.4191 17.6508
RightForeArm  -2.64265 15.9764 11.376
RightHand  0.856061 7.65028 7.21864
LeftUpLeg  -12.4994 5.03447 -12.2257
LeftLeg  18.8336 20.001 2.69187
LeftFoot  -5.59063 -0.438717 9.38432
LeftToes  -2.158e-010 -1.26819e-010 -1.05346e-011
1827
root  -26.9145 38.077 51.5482 55.1173 84.4773 59.7247
RightUpLeg  -8.55239 -3.00494 -12.9736
RightLeg  64.8688 -0.983442 -2.89657
RightFoot  4.99121 -2.23056 15.6945
RightToes  -5.28216e-011 1.2921e-014 -6.02303e-014
Spine  6.61222 1.9979 -4.22104
Spine1  -0.75602 2.06623 -6.82768
HEad  3.08583 26.1378 -5.85069
LeftShoulder1  1.23435 0.495317 -34.9387
LeftArm  20.9121 10.3077 -29.0856
LeftForeArm  -2.29281 -12.5235 -14.2106
LeftHand  0.548504 -3.4308 -6.97525
RightShoulder  6.32047 7.66825 49.5717
RightArm  38.7355 -4.18445 17.8021
RightForeArm  -5.1046 18.208 9.34671
RightHand  0.843987 7.71846 7.07155
LeftUpLeg  -11.0173 4.97608 -12.3336
LeftLeg  20.0176 18.3706 3.03812
LeftFoot  -7.35908 -0.267031 8.93868
LeftToes  -2.158e-010 -1.26819e-010 -1.05346e-011
1828
root  -26.0482 38.1666 51.5621 76.4942 85.8067 81.4615
RightUpLeg  -12.0338 -1.4662 -12.0354
RightLeg  65.6399 -1.93695 -5.30816
RightFoot  3.85727 -2.01018 15.185
RightToes  -5.28216e-011 1.2921e-014 -6.02303e-014
Spine  6.74359 1.50345 -4.54132
Spine1  -0.669241 1.40851 -6.21256
HEad  3.73257 25.6023 -5.45095
LeftShoulder1  1.30695 0.284859 -34.5227
LeftArm  21.8262 7.34162 -30.8379
LeftForeArm  -1.99912 -13.9963 -13.0429
LeftHand  0.540104 -3.58221 -6.73758
RightShoulder  6.21515 7.53804 49.322
RightArm  38.3115 -4.10866 17.7783
RightForeArm  -7.678 19.5254 8.14972
RightHand  0.808154 7.53194 6.86339
LeftUpLeg  -9.00518 4.69852 -11.9219
LeftLeg  20.025 16.6961 2.70104
LeftFoot  -8.64718 -0.154817 8.78307
LeftToes  -2.158e-010 -1.26819e-010 -1.05346e-011
1829
root  -25.1828 38.2882 51.5627 109.295 86.1929 114.429
RightUpLeg  -15.0562 0.18076 -11.0064
RightLeg  63.5135 -2.53612 -6.09645
RightFoot  2.40382 -1.5723 13.1294
RightToes  -5.28216e-011 1.2921e-014 -6.02303e-014
Spine  6.66231 1.01304 -4.92485
Spine1  -0.655738 0.789431 -5.30534
HEad  4.36735 25.0481 -4.89611
LeftShoulder1  1.33835 0.178762 -34.1786
LeftArm  25.2934 4.98813 -32.3667
LeftForeArm  -4.86899 -16.8916 -10.7151
LeftHand  0.533791 -3.87229 -6.42636
RightShoulder  6.11842 7.41716 49.0927
RightArm  37.8346 -4.03161 17.5629
RightForeArm  -9.69612 20.4134 7.40282
RightHand  0.774686 7.3463 6.66994
LeftUpLeg  -6.84983 4.58872 -11.248
LeftLeg  19.2981 14.8304 1.85582
LeftFoot  -9.68991 -0.0673577 8.70917
LeftToes  -2.158e-010 -1.26819e-010 -1.05346e-011
1830
root  -24.3356 38.4386 51.535 141.118 85.2816 146.176
RightUpLeg  -17.3868 1.6353 -9.95932
RightLeg  58.5731 -3.78346 -7.1114
RightFoot  1.22357 -1.38681 12.626
RightToes  -5.28216e-011 1.2921e-014 -6.02303e-014
Spine  6.45745 0.44724 -4.93308
Spine1  -0.773347 0.210461 -4.48292
HEad  4.69378 24.4067 -4.33232
LeftShoulder1  1.36773 0.073174 -33.8026
LeftArm  28.7287 3.07292 -33.6322
LeftForeArm  -7.8913 -19.9067 -7.92215
LeftHand  0.532084 -4.28708 -6.10149
RightShoulder  5.96033 7.17081 48.9291
RightArm  37.3453 -3.88472 17.2711
RightForeArm  -9.99558 20.7888 7.07208
RightHand  0.762532 7.29379 6.58974
LeftUpLeg  -4.8676 4.69971 -10.3555
LeftLeg  18.3314 12.3261 0.892665
LeftFoot  -10.4378 -0.00641593 8.77474
LeftToes  -2.158e-010 -1.26819e-010 -1.05346e-011
1831
root  -23.5164 38.5866 51.4921 158.421 83.6661 163.397
RightUpLeg  -18.7632 2.98474 -9.04491
RightLeg  51.0904 -5.54089 -7.66295
RightFoot  0.792413 -1.3208 12.4329
RightToes  -5.28216e-011 1.2921e-014 -6.02303e-014
Spine  6.42225 0.0682796 -4.79888
Spine1  -0.985238 -0.141873 -3.51903
HEad  4.68788 23.5187 -3.903
LeftShoulder1  1.39685 -0.0267761 -33.5035
LeftArm  29.966 1.47331 -34.5716
LeftForeArm  -8.60848 -22.6492 -5.72712
LeftHand  0.528501 -4.612 -5.83997
RightShoulder  5.79962 6.94722 48.6288
RightArm  36.8325 -3.88288 17.0691
RightForeArm  -9.38331 20.5706 7.22008
RightHand  0.744079 7.3196 6.40755
LeftUpLeg  -2.8008 4.83098 -9.45553
LeftLeg  17 10.0565 0.132522
LeftFoot  -10.9359 0.0337538 9.07099
LeftToes  -2.158e-010 -1.26819e-010 -1.05346e-011
